<?xml version="1.0" standalone="no"?>
<!DOCTYPE svg PUBLIC "-//W3C//DTD SVG 20010904//EN"
 "http://www.w3.org/TR/2001/REC-SVG-20010904/DTD/svg10.dtd">
<svg version="1.0" xmlns="http://www.w3.org/2000/svg"
 width="311.000000pt" height="162.000000pt" viewBox="0 0 311.000000 162.000000"
 preserveAspectRatio="xMidYMid meet">

<g transform="translate(0.000000,162.000000) scale(0.100000,-0.100000)"
fill="#000000" stroke="none">
<path d="M2575 1041 c-77 -36 -145 -130 -145 -201 l0 -30 250 0 250 0 0 33 c0
76 -70 167 -155 203 -49 20 -151 18 -200 -5z m-4 -128 c1 -17 2 -17 6 0 9 33
23 16 23 -28 0 -50 -6 -57 -20 -22 l-9 22 0 -23 c-1 -40 -21 -13 -21 29 0 38
19 57 21 22z m58 -20 c1 32 4 37 26 37 17 0 25 -6 26 -17 1 -17 2 -17 6 0 2 9
11 17 19 17 8 0 15 -8 15 -17 1 -17 2 -17 6 0 9 33 33 19 35 -20 l1 -38 4 36
c3 31 8 37 29 37 21 0 24 -5 24 -39 0 -21 -4 -41 -10 -44 -5 -3 -10 -1 -10 5
0 6 -5 8 -12 3 -20 -12 -38 -12 -38 -1 0 6 -7 4 -17 -3 -19 -16 -23 -16 -34 3
-5 7 -9 8 -9 3 0 -6 -17 -11 -37 -10 -38 0 -38 0 -39 45 l-2 45 8 -40 7 -40 2
38z"/>
<path d="M2711 874 c0 -11 3 -14 6 -6 3 7 2 16 -1 19 -3 4 -6 -2 -5 -13z"/>
<path d="M2 778 c3 -115 4 -123 23 -123 16 0 21 8 23 43 l3 42 79 0 c79 0 128
11 142 33 4 7 8 31 8 54 0 64 -19 73 -163 73 l-118 0 3 -122z m226 48 c5 -39
-10 -46 -100 -46 l-78 0 0 40 0 41 88 -3 87 -3 3 -29z"/>
<path d="M350 774 c0 -124 0 -125 23 -122 18 2 23 10 25 46 l3 43 86 -46 c46
-25 92 -45 101 -43 33 6 16 33 -38 63 l-55 30 46 5 c63 8 79 23 79 76 0 68
-12 74 -151 74 l-119 0 0 -126z m220 51 l0 -35 -85 0 -85 0 0 35 0 35 85 0 85
0 0 -35z"/>
<path d="M707 882 c-13 -14 -17 -38 -17 -103 0 -46 4 -89 8 -96 28 -44 226
-44 254 0 4 7 8 51 8 99 0 113 -6 118 -141 118 -80 0 -99 -3 -112 -18z m201
-103 c3 -86 1 -89 -83 -89 -82 0 -85 4 -85 84 0 40 3 76 7 80 4 4 41 5 83 4
l75 -3 3 -76z"/>
<path d="M1109 893 c0 -5 0 -42 1 -83 2 -101 -2 -108 -61 -116 -39 -5 -49 -10
-47 -23 5 -21 89 -19 123 3 24 16 25 21 25 121 0 98 -1 105 -20 105 -11 0 -20
-3 -21 -7z"/>
<path d="M1240 880 c-17 -17 -20 -33 -20 -99 0 -117 9 -125 144 -129 102 -4
106 -3 106 17 0 20 -5 21 -83 21 -90 0 -122 13 -115 46 2 15 13 20 51 22 39 3
48 6 45 20 -2 13 -16 18 -51 20 -46 3 -48 4 -45 30 l3 27 98 3 c89 2 97 4 97
22 0 19 -7 20 -105 20 -92 0 -108 -3 -125 -20z"/>
<path d="M1540 887 c0 -7 20 -33 45 -57 25 -24 45 -49 45 -55 0 -6 -20 -28
-45 -49 -46 -41 -59 -76 -27 -76 10 0 40 23 67 50 l49 50 51 -50 c51 -51 68
-59 81 -39 10 17 -215 239 -243 239 -13 0 -23 -6 -23 -13z"/>
<path d="M1882 778 c3 -115 4 -123 23 -123 19 0 20 8 23 123 l3 122 -26 0 -26
0 3 -122z"/>
<path d="M2113 888 c-30 -39 -124 -219 -118 -228 12 -20 36 -9 52 25 l17 35
81 0 81 0 17 -35 c16 -34 40 -45 52 -25 4 6 -24 62 -61 125 -54 90 -73 115
-90 115 -12 0 -26 -6 -31 -12z m77 -120 c0 -5 -20 -8 -45 -8 -51 0 -54 8 -24
57 l21 34 24 -38 c13 -21 24 -41 24 -45z"/>
</g>
</svg>
